<?xml version="1.0" standalone="no"?>
<!DOCTYPE svg PUBLIC "-//W3C//DTD SVG 20010904//EN"
 "http://www.w3.org/TR/2001/REC-SVG-20010904/DTD/svg10.dtd">
<svg version="1.0" xmlns="http://www.w3.org/2000/svg"
 width="640.000000pt" height="640.000000pt" viewBox="0 0 640.000000 640.000000"
 preserveAspectRatio="xMidYMid meet">
<metadata>
Created by potrace 1.11, written by Peter Selinger 2001-2013
</metadata>
<g transform="translate(0.000000,640.000000) scale(0.100000,-0.100000)"
fill="#000000" stroke="none">
<path d="M2979 6395 c-2 -2 -35 -6 -74 -9 -123 -10 -382 -53 -470 -78 -22 -6
-47 -13 -56 -14 -41 -8 -252 -79 -352 -118 -251 -98 -589 -287 -761 -427 -6
-5 -31 -25 -56 -45 -102 -81 -160 -134 -266 -239 -294 -293 -508 -605 -681
-995 -80 -180 -177 -494 -209 -680 -4 -25 -8 -47 -9 -50 -1 -3 -5 -32 -9 -65
-5 -33 -10 -68 -12 -78 -25 -142 -25 -656 1 -797 1 -8 6 -40 10 -70 5 -44 34
-190 60 -310 6 -28 56 -192 76 -254 122 -362 350 -760 605 -1052 76 -88 263
-276 333 -334 29 -25 58 -50 65 -55 35 -32 187 -143 286 -208 164 -107 300
-179 520 -275 182 -79 431 -151 660 -192 218 -38 291 -44 555 -44 192 -1 268
3 400 18 89 10 302 50 380 71 28 8 61 17 75 20 51 13 305 98 315 105 6 4 21
11 35 15 52 16 257 114 360 172 264 150 458 297 679 513 306 299 537 637 703
1025 70 164 139 369 168 500 7 28 14 59 16 70 9 37 34 180 40 225 3 25 8 53
10 64 26 138 26 625 -1 791 -3 17 -7 46 -9 65 -10 75 -17 116 -37 208 -11 52
-22 102 -24 111 -18 86 -86 290 -141 425 -171 418 -401 759 -735 1086 -123
121 -137 134 -209 190 -25 19 -50 39 -56 45 -37 34 -236 170 -337 228 -244
143 -436 228 -722 317 -50 15 -226 60 -259 65 -17 3 -42 8 -56 10 -37 8 -90
16 -130 21 -19 2 -51 6 -70 10 -19 3 -55 8 -80 10 -55 6 -527 14 -531 9z m501
-518 c14 -3 52 -8 85 -12 32 -4 68 -9 80 -11 11 -2 34 -6 50 -9 85 -12 380
-94 450 -125 11 -5 70 -30 130 -55 61 -26 139 -63 175 -83 36 -21 73 -40 82
-44 9 -4 69 -41 133 -83 593 -390 1009 -986 1160 -1665 22 -99 24 -107 30
-155 3 -22 8 -51 10 -65 15 -87 20 -180 20 -365 0 -179 -9 -357 -20 -375 -2
-3 -6 -27 -9 -55 -4 -27 -9 -57 -11 -65 -2 -8 -6 -31 -9 -50 -19 -118 -92
-351 -164 -520 -275 -648 -827 -1185 -1482 -1440 -47 -18 -94 -36 -105 -41
-62 -25 -250 -77 -341 -94 -16 -2 -54 -9 -86 -15 -276 -51 -630 -50 -928 1
-1000 172 -1840 931 -2118 1914 -24 84 -60 246 -66 295 -2 19 -7 51 -10 70
-15 87 -18 129 -21 340 -3 207 3 291 30 470 11 79 64 292 96 390 130 400 349
757 647 1059 165 166 331 299 497 397 44 26 82 50 85 54 8 10 271 136 335 159
33 13 69 27 80 31 84 35 330 102 425 116 30 4 57 8 60 9 8 2 173 25 205 28 46
5 477 0 505 -6z"/>
<path d="M2838 5213 c-65 -17 -100 -36 -146 -81 -42 -41 -76 -98 -90 -152 -5
-19 -9 -272 -9 -561 0 -290 -3 -530 -6 -535 -3 -5 -232 -9 -529 -9 -559 1
-580 -1 -662 -49 -55 -32 -92 -76 -125 -146 l-25 -55 -1 -400 c-1 -267 3 -417
10 -451 25 -112 114 -205 225 -234 32 -9 199 -12 578 -12 l532 0 1 -27 c0 -14
1 -262 2 -551 l2 -525 27 -55 c46 -93 102 -143 193 -175 44 -15 97 -17 445
-17 347 0 401 2 445 17 91 31 147 82 193 175 l27 55 2 510 c1 281 2 529 3 551
l0 42 538 0 c474 0 544 2 587 16 105 36 191 128 211 227 4 19 8 219 8 444 l1
410 -33 68 c-38 77 -100 133 -179 163 -44 17 -89 19 -590 19 l-543 0 -1 50 c0
28 0 266 0 530 1 457 0 483 -20 546 -33 105 -124 191 -229 214 -61 14 -787 12
-842 -2z"/>
</g>
</svg>
